<svg width="29" height="19" viewBox="0 0 29 19" fill="none" xmlns="http://www.w3.org/2000/svg">
<path d="M7.48422 18.24C11.4442 18.24 14.5642 15.12 14.5642 9.6C14.5642 4.08 11.4442 0.959999 7.48422 0.959999C3.52422 0.959999 0.404219 4.08 0.404219 9.6C0.404219 15.12 3.52422 18.24 7.48422 18.24ZM7.48422 14.52C5.80422 14.52 4.24422 12.96 4.24422 9.6C4.24422 6.24 5.80422 4.68 7.48422 4.68C9.16422 4.68 10.7242 6.24 10.7242 9.6C10.7242 12.96 9.16422 14.52 7.48422 14.52ZM22.5967 18.24C26.3167 18.24 28.5967 15.96 28.5967 13.2C28.5967 10.32 26.0767 9.48 26.0767 9.48V9.36C26.0767 9.36 28.3567 8.52 28.3567 5.856C28.3567 3.24 26.0767 0.959999 22.5967 0.959999C18.9967 0.959999 16.5967 3.36 16.5967 6.24H20.4367C20.4367 5.28 21.1567 4.56 22.4767 4.56C23.7967 4.56 24.5167 5.28 24.5167 6.12C24.5167 7.08 23.7967 7.8 22.4767 7.8H21.2767V10.92H22.4767C23.9167 10.92 24.7567 11.76 24.7567 12.84C24.7567 13.8 23.9167 14.64 22.4767 14.64C21.0367 14.64 20.1967 13.8 20.1967 12.72H16.3567C16.3567 15.84 18.7567 18.24 22.5967 18.24Z" fill="#323232"/>
</svg>
