<svg width="172" height="172" viewBox="0 0 172 172" fill="none" xmlns="http://www.w3.org/2000/svg">
<g filter="url(#filter0_b_3_532)">
<circle cx="86" cy="86" r="86" fill="white" fill-opacity="0.2"/>
<circle cx="86" cy="86" r="84.5257" stroke="white" stroke-opacity="0.7" stroke-width="2.94857"/>
</g>
<path d="M67.4807 95.5736C70.9084 95.5736 73.0093 93.4727 73.0093 90.9296C73.0093 88.2758 70.6873 87.5018 70.6873 87.5018V87.3913C70.6873 87.3913 72.7881 86.6173 72.7881 84.1626C72.7881 81.7521 70.6873 79.6513 67.4807 79.6513C64.1635 79.6513 61.9521 81.8627 61.9521 84.5164H65.4904C65.4904 83.6318 66.1538 82.9684 67.3701 82.9684C68.5864 82.9684 69.2498 83.6318 69.2498 84.4058C69.2498 85.2904 68.5864 85.9538 67.3701 85.9538H66.2644V88.8287H67.3701C68.697 88.8287 69.471 89.6027 69.471 90.5978C69.471 91.4824 68.697 92.2564 67.3701 92.2564C66.0433 92.2564 65.2693 91.4824 65.2693 90.4873H61.731C61.731 93.3621 63.9424 95.5736 67.4807 95.5736ZM80.5273 95.5736C83.8444 95.5736 86.277 93.141 86.277 90.1556C86.277 87.1701 83.955 84.8481 80.859 84.8481L84.1761 79.8724H80.1955L75.7727 86.7278C75.3304 87.3913 74.7775 88.3864 74.7775 90.1556C74.7775 93.141 77.2101 95.5736 80.5273 95.5736ZM80.5273 92.2564C79.2004 92.2564 78.3158 91.3718 78.3158 90.1556C78.3158 88.9393 79.2004 88.0547 80.5273 88.0547C81.8541 88.0547 82.7387 88.9393 82.7387 90.1556C82.7387 91.3718 81.8541 92.2564 80.5273 92.2564ZM94.5664 95.5736C98.2152 95.5736 101.09 92.6987 101.09 87.6124C101.09 82.5261 98.2152 79.6513 94.5664 79.6513C90.9175 79.6513 88.0427 82.5261 88.0427 87.6124C88.0427 92.6987 90.9175 95.5736 94.5664 95.5736ZM94.5664 92.1458C93.0184 92.1458 91.5809 90.7084 91.5809 87.6124C91.5809 84.5164 93.0184 83.079 94.5664 83.079C96.1144 83.079 97.5518 84.5164 97.5518 87.6124C97.5518 90.7084 96.1144 92.1458 94.5664 92.1458ZM106.501 86.0644C108.27 86.0644 109.708 84.627 109.708 82.8578C109.708 81.0887 108.27 79.6513 106.501 79.6513C104.732 79.6513 103.295 81.0887 103.295 82.8578C103.295 84.627 104.732 86.0644 106.501 86.0644ZM106.501 84.0741C105.838 84.0741 105.285 83.5213 105.285 82.8578C105.285 82.1944 105.838 81.6416 106.501 81.6416C107.165 81.6416 107.717 82.1944 107.717 82.8578C107.717 83.5213 107.165 84.0741 106.501 84.0741Z" fill="#323232"/>
<path d="M139.638 78.8863L139.758 78.9884L146.076 85.1314C146.532 85.5741 146.566 86.2708 146.181 86.7533L146.076 86.8688L139.758 93.0117C139.264 93.4914 138.464 93.4914 137.971 93.0117C137.515 92.569 137.48 91.8716 137.865 91.3898L137.971 91.2743L143.394 86.0001L137.971 80.726C137.515 80.2832 137.48 79.5865 137.865 79.1041L137.971 78.9885C138.426 78.5458 139.143 78.5114 139.638 78.8863Z" fill="#323232"/>
<path d="M31.3785 93.1138L31.2589 93.0117L24.9412 86.8688C24.4851 86.426 24.4506 85.7293 24.8355 85.2469L24.9412 85.1313L31.2589 78.9884C31.753 78.5087 32.5526 78.5087 33.0461 78.9884C33.5022 79.4312 33.5367 80.1286 33.1518 80.6103L33.0461 80.7258L27.6227 86L33.0461 91.2742C33.5022 91.7169 33.5367 92.4136 33.1518 92.896L33.0461 93.0116C32.5907 93.4544 31.874 93.4887 31.3785 93.1138Z" fill="#323232"/>
<defs>
<filter id="filter0_b_3_532" x="-7.86286" y="-7.86286" width="187.726" height="187.726" filterUnits="userSpaceOnUse" color-interpolation-filters="sRGB">
<feFlood flood-opacity="0" result="BackgroundImageFix"/>
<feGaussianBlur in="BackgroundImageFix" stdDeviation="3.93143"/>
<feComposite in2="SourceAlpha" operator="in" result="effect1_backgroundBlur_3_532"/>
<feBlend mode="normal" in="SourceGraphic" in2="effect1_backgroundBlur_3_532" result="shape"/>
</filter>
</defs>
</svg>
