<svg width="1214" height="160" viewBox="0 0 1214 160" fill="none" xmlns="http://www.w3.org/2000/svg">
<path d="M-0.876978 157H37.623L47.523 126.2H106.923L116.823 157H155.323L102.523 2.99999H51.923L-0.876978 157ZM57.423 95.4L75.023 40.4H79.423L97.023 95.4H57.423ZM160.866 157H196.066V2.99999H160.866V157ZM218.023 157H253.223V107.5H257.623L301.623 157H345.623L298.323 105.3C298.323 105.3 341.223 103.1 341.223 55.8C341.223 23.9 320.323 2.99999 290.623 2.99999H218.023V157ZM253.223 75.6V36H288.423C298.323 36 306.023 43.7 306.023 55.8C306.023 67.9 298.323 75.6 288.423 75.6H253.223ZM396.051 157H440.051C462.051 157 474.151 144.9 474.151 122.9V2.99999H438.951V113C438.951 119.6 435.651 122.9 429.051 122.9H396.051V157ZM563.182 159.2C604.982 159.2 637.982 126.2 637.982 80C637.982 33.8 604.982 0.799992 563.182 0.799992C521.382 0.799992 488.382 33.8 488.382 80C488.382 126.2 521.382 159.2 563.182 159.2ZM563.182 125.1C541.182 125.1 523.582 107.5 523.582 80C523.582 52.5 541.182 34.9 563.182 34.9C585.182 34.9 602.782 52.5 602.782 80C602.782 107.5 585.182 125.1 563.182 125.1ZM653.331 157H688.531V107.5H692.931L736.931 157H780.931L733.631 105.3C733.631 105.3 776.531 103.1 776.531 55.8C776.531 23.9 755.631 2.99999 725.931 2.99999H653.331V157ZM688.531 75.6V36H723.731C733.631 36 741.331 43.7 741.331 55.8C741.331 67.9 733.631 75.6 723.731 75.6H688.531ZM794.062 157H851.262C893.062 157 926.062 124 926.062 80C926.062 36 893.062 2.99999 851.262 2.99999H794.062V157ZM829.262 122.9V37.1H851.262C873.262 37.1 890.862 54.7 890.862 80C890.862 105.3 873.262 122.9 851.262 122.9H829.262ZM920.657 157H959.157L969.057 126.2H1028.46L1038.36 157H1076.86L1024.06 2.99999H973.457L920.657 157ZM978.957 95.4L996.557 40.4H1000.96L1018.56 95.4H978.957ZM1082.4 157H1117.6V64.6H1122L1170.4 157H1213.3V2.99999H1178.1V95.4H1173.7L1125.3 2.99999H1082.4V157Z" fill="white"/>
</svg>
