<svg width="65" height="21" viewBox="0 0 65 21" fill="none" xmlns="http://www.w3.org/2000/svg">
<path fill-rule="evenodd" clip-rule="evenodd" d="M55 0C54.2537 0 53.6486 0.605019 53.6486 1.35135V18.1081C53.6486 18.8544 54.2537 19.4595 55 19.4595C55.7463 19.4595 56.3513 18.8544 56.3513 18.1081V1.35135C56.3513 0.605021 55.7463 0 55 0ZM49.3243 5.40541C49.3243 4.65908 49.9294 4.05406 50.6757 4.05406C51.422 4.05406 52.027 4.65908 52.027 5.40541V18.1081C52.027 18.8544 51.422 19.4595 50.6757 19.4595C49.9294 19.4595 49.3243 18.8544 49.3243 18.1081V5.40541ZM45 10.2703C45 9.52394 45.605 8.91891 46.3514 8.91891C47.0977 8.91891 47.7027 9.52394 47.7027 10.2703V18.1081C47.7027 18.8544 47.0977 19.4595 46.3514 19.4595C45.605 19.4595 45 18.8544 45 18.1081V10.2703ZM62.2973 7.83784C62.2973 7.09151 62.9023 6.48649 63.6487 6.48649C64.395 6.48649 65 7.09151 65 7.83784V18.1081C65 18.8544 64.395 19.4595 63.6487 19.4595C62.9023 19.4595 62.2973 18.8544 62.2973 18.1081V7.83784ZM59.3243 9.72974C58.578 9.72974 57.973 10.3348 57.973 11.0811V18.1081C57.973 18.8545 58.578 19.4595 59.3243 19.4595C60.0707 19.4595 60.6757 18.8545 60.6757 18.1081V11.0811C60.6757 10.3348 60.0707 9.72974 59.3243 9.72974Z" fill="#323232"/>
<path d="M19.6396 18.8724L15.1557 14.4043C16.1868 13.0129 16.7978 11.2847 16.7978 9.40928C16.7978 4.77235 13.0303 1 8.39932 1C3.76751 0.999177 0 4.77172 0 9.40865C0 14.0456 3.76751 17.8179 8.39848 17.8179C10.2716 17.8179 11.977 17.207 13.3871 16.1738L17.8494 20.6419C18.1019 20.8946 18.4176 21 18.7334 21C19.0491 21 19.3863 20.8732 19.6173 20.6419C20.1238 20.1577 20.1238 19.3575 19.6395 18.8726L19.6396 18.8724ZM2.50456 9.40844C2.50456 6.16301 5.15726 3.50689 8.39852 3.50689C11.6398 3.50689 14.2925 6.16301 14.2925 9.40844C14.2925 12.6539 11.6398 15.31 8.39852 15.31C5.15726 15.31 2.50456 12.6754 2.50456 9.40844Z" fill="#323232"/>
</svg>
