<svg width="123" height="32" viewBox="0 0 123 32" fill="none" xmlns="http://www.w3.org/2000/svg">
<path d="M0.747992 24H6.53112L7.30221 21.3012H13.2139L13.9849 24H19.7681L13.9849 6.00803H6.53112L0.747992 24ZM8.58735 16.6747L10.001 11.7912H10.5151L11.9287 16.6747H8.58735ZM20.9177 24H26.3153V6.00803H20.9177V24ZM29.1506 24H34.5482V18.8594L38.4036 24H44.8293L40.3313 18.6024C42.6446 17.8313 44.5723 15.9036 44.5723 12.5622C44.5723 8.57831 41.745 6.00803 38.1466 6.00803H29.1506V24ZM34.5482 14.1044V11.0201H37.761C38.5321 11.0201 39.1747 11.6627 39.1747 12.5622C39.1747 13.4618 38.5321 14.1044 37.761 14.1044H34.5482Z" fill="#323232"/>
<mask id="path-2-outside-1_3_541" maskUnits="userSpaceOnUse" x="45.3374" y="5" width="77" height="20" fill="black">
<rect fill="white" x="45.3374" y="5" width="77" height="20"/>
<path d="M50.3575 24H55.7551V11.2771H60.2531V6.00803H45.8595V11.2771H50.3575V24ZM62.1707 24H67.5683V6.00803H62.1707V24ZM78.6286 24.257C80.2993 24.257 81.7129 23.743 82.8695 22.7149H82.998L83.1266 24H87.1105V14.2329H78.7571V17.7028H81.4559C81.0703 18.3454 80.2993 18.988 78.6286 18.988C76.7009 18.988 75.1587 17.4458 75.1587 15.004C75.1587 12.5622 76.7009 11.0201 78.6286 11.0201C80.1707 11.0201 81.0703 11.9197 81.4559 12.6908H86.982C86.2109 8.83534 83.1266 5.751 78.6286 5.751C73.6165 5.751 69.7611 9.60643 69.7611 15.004C69.7611 20.4016 73.6165 24.257 78.6286 24.257ZM89.5553 24H94.9529V17.7028H99.8364V24H105.234V6.00803H99.8364V12.1767H94.9529V6.00803H89.5553V24ZM111.653 24H117.05V11.2771H121.548V6.00803H107.155V11.2771H111.653V24Z"/>
</mask>
<path d="M50.3575 24H50.0563V24.3011H50.3575V24ZM55.7551 24V24.3011H56.0562V24H55.7551ZM55.7551 11.2771V10.976H55.4539V11.2771H55.7551ZM60.2531 11.2771V11.5783H60.5542V11.2771H60.2531ZM60.2531 6.00803H60.5542V5.70689H60.2531V6.00803ZM45.8595 6.00803V5.70689H45.5583V6.00803H45.8595ZM45.8595 11.2771H45.5583V11.5783H45.8595V11.2771ZM50.3575 11.2771H50.6586V10.976H50.3575V11.2771ZM50.3575 24.3011H55.7551V23.6989H50.3575V24.3011ZM56.0562 24V11.2771H55.4539V24H56.0562ZM55.7551 11.5783H60.2531V10.976H55.7551V11.5783ZM60.5542 11.2771V6.00803H59.9519V11.2771H60.5542ZM60.2531 5.70689H45.8595V6.30918H60.2531V5.70689ZM45.5583 6.00803V11.2771H46.1606V6.00803H45.5583ZM45.8595 11.5783H50.3575V10.976H45.8595V11.5783ZM50.0563 11.2771V24H50.6586V11.2771H50.0563ZM62.1707 24H61.8696V24.3011H62.1707V24ZM67.5683 24V24.3011H67.8695V24H67.5683ZM67.5683 6.00803H67.8695V5.70689H67.5683V6.00803ZM62.1707 6.00803V5.70689H61.8696V6.00803H62.1707ZM62.1707 24.3011H67.5683V23.6989H62.1707V24.3011ZM67.8695 24V6.00803H67.2672V24H67.8695ZM67.5683 5.70689H62.1707V6.30918H67.5683V5.70689ZM61.8696 6.00803V24H62.4719V6.00803H61.8696ZM82.8695 22.7149V22.4137H82.755L82.6695 22.4898L82.8695 22.7149ZM82.998 22.7149L83.2977 22.6849L83.2706 22.4137H82.998V22.7149ZM83.1266 24L82.8269 24.03L82.854 24.3011H83.1266V24ZM87.1105 24V24.3011H87.4116V24H87.1105ZM87.1105 14.2329H87.4116V13.9318H87.1105V14.2329ZM78.7571 14.2329V13.9318H78.4559V14.2329H78.7571ZM78.7571 17.7028H78.4559V18.004H78.7571V17.7028ZM81.4559 17.7028L81.7141 17.8577L81.9878 17.4017H81.4559V17.7028ZM81.4559 12.6908L81.1865 12.8254L81.2698 12.9919H81.4559V12.6908ZM86.982 12.6908V12.9919H87.3493L87.2773 12.6317L86.982 12.6908ZM78.6286 24.5582C80.3666 24.5582 81.8533 24.0211 83.0696 22.9399L82.6695 22.4898C81.5725 23.4648 80.2319 23.9559 78.6286 23.9559V24.5582ZM82.8695 23.016H82.998V22.4137H82.8695V23.016ZM82.6984 22.7448L82.8269 24.03L83.4262 23.97L83.2977 22.6849L82.6984 22.7448ZM83.1266 24.3011H87.1105V23.6989H83.1266V24.3011ZM87.4116 24V14.2329H86.8093V24H87.4116ZM87.1105 13.9318H78.7571V14.5341H87.1105V13.9318ZM78.4559 14.2329V17.7028H79.0582V14.2329H78.4559ZM78.7571 18.004H81.4559V17.4017H78.7571V18.004ZM81.1976 17.5479C81.0289 17.829 80.7775 18.109 80.3819 18.3209C79.9846 18.5337 79.4252 18.6868 78.6286 18.6868V19.2891C79.5026 19.2891 80.1641 19.1209 80.6664 18.8518C81.1704 18.5818 81.4973 18.2192 81.7141 17.8577L81.1976 17.5479ZM78.6286 18.6868C76.8942 18.6868 75.4598 17.3078 75.4598 15.004H74.8575C74.8575 17.5838 76.5075 19.2891 78.6286 19.2891V18.6868ZM75.4598 15.004C75.4598 12.7002 76.8942 11.3212 78.6286 11.3212V10.7189C76.5075 10.7189 74.8575 12.4243 74.8575 15.004H75.4598ZM78.6286 11.3212C80.034 11.3212 80.841 12.1343 81.1865 12.8254L81.7252 12.5561C81.2997 11.705 80.3075 10.7189 78.6286 10.7189V11.3212ZM81.4559 12.9919H86.982V12.3896H81.4559V12.9919ZM87.2773 12.6317C86.4815 8.65262 83.2869 5.44986 78.6286 5.44986V6.05215C82.9663 6.05215 85.9403 9.01807 86.6867 12.7498L87.2773 12.6317ZM78.6286 5.44986C73.4418 5.44986 69.46 9.44865 69.46 15.004H70.0622C70.0622 9.76421 73.7912 6.05215 78.6286 6.05215V5.44986ZM69.46 15.004C69.46 20.5594 73.4418 24.5582 78.6286 24.5582V23.9559C73.7912 23.9559 70.0622 20.2438 70.0622 15.004H69.46ZM89.5553 24H89.2541V24.3011H89.5553V24ZM94.9529 24V24.3011H95.254V24H94.9529ZM94.9529 17.7028V17.4017H94.6517V17.7028H94.9529ZM99.8364 17.7028H100.138V17.4017H99.8364V17.7028ZM99.8364 24H99.5353V24.3011H99.8364V24ZM105.234 24V24.3011H105.535V24H105.234ZM105.234 6.00803H105.535V5.70689H105.234V6.00803ZM99.8364 6.00803V5.70689H99.5353V6.00803H99.8364ZM99.8364 12.1767V12.4779H100.138V12.1767H99.8364ZM94.9529 12.1767H94.6517V12.4779H94.9529V12.1767ZM94.9529 6.00803H95.254V5.70689H94.9529V6.00803ZM89.5553 6.00803V5.70689H89.2541V6.00803H89.5553ZM89.5553 24.3011H94.9529V23.6989H89.5553V24.3011ZM95.254 24V17.7028H94.6517V24H95.254ZM94.9529 18.004H99.8364V17.4017H94.9529V18.004ZM99.5353 17.7028V24H100.138V17.7028H99.5353ZM99.8364 24.3011H105.234V23.6989H99.8364V24.3011ZM105.535 24V6.00803H104.933V24H105.535ZM105.234 5.70689H99.8364V6.30918H105.234V5.70689ZM99.5353 6.00803V12.1767H100.138V6.00803H99.5353ZM99.8364 11.8756H94.9529V12.4779H99.8364V11.8756ZM95.254 12.1767V6.00803H94.6517V12.1767H95.254ZM94.9529 5.70689H89.5553V6.30918H94.9529V5.70689ZM89.2541 6.00803V24H89.8564V6.00803H89.2541ZM111.653 24H111.352V24.3011H111.653V24ZM117.05 24V24.3011H117.351V24H117.05ZM117.05 11.2771V10.976H116.749V11.2771H117.05ZM121.548 11.2771V11.5783H121.849V11.2771H121.548ZM121.548 6.00803H121.849V5.70689H121.548V6.00803ZM107.155 6.00803V5.70689H106.854V6.00803H107.155ZM107.155 11.2771H106.854V11.5783H107.155V11.2771ZM111.653 11.2771H111.954V10.976H111.653V11.2771ZM111.653 24.3011H117.05V23.6989H111.653V24.3011ZM117.351 24V11.2771H116.749V24H117.351ZM117.05 11.5783H121.548V10.976H117.05V11.5783ZM121.849 11.2771V6.00803H121.247V11.2771H121.849ZM121.548 5.70689H107.155V6.30918H121.548V5.70689ZM106.854 6.00803V11.2771H107.456V6.00803H106.854ZM107.155 11.5783H111.653V10.976H107.155V11.5783ZM111.352 11.2771V24H111.954V11.2771H111.352Z" fill="#323232" mask="url(#path-2-outside-1_3_541)"/>
</svg>
